<?xml version="1.0" encoding="utf-8"?>
<svg viewBox="0 0 85.38 24.8" xmlns="http://www.w3.org/2000/svg" xmlns:bx="https://boxy-svg.com">
  <title>Element 1</title>
  <path d="M 30.38 5.377 C 30.333 3.212 32.115 1.452 34.28 1.527 C 35.599 1.473 36.832 2.181 37.45 3.347 L 36.09 4.017 C 35.741 3.343 35.039 2.924 34.28 2.937 C 32.964 2.952 31.926 4.063 32 5.377 C 31.926 6.691 32.964 7.802 34.28 7.817 C 35.051 7.821 35.755 7.381 36.09 6.687 L 37.45 7.347 C 36.831 8.513 35.6 9.224 34.28 9.177 C 32.135 9.251 30.362 7.523 30.38 5.377 Z"/>
  <path d="M 42.6 1.527 C 44.772 1.433 46.566 3.204 46.5 5.377 C 46.5 8.372 43.258 10.243 40.665 8.746 C 39.461 8.051 38.72 6.767 38.72 5.377 C 38.655 3.212 40.436 1.445 42.6 1.527 Z M 42.6 2.937 C 41.279 2.932 40.238 4.061 40.35 5.377 C 40.186 7.117 41.967 8.381 43.556 7.654 C 44.433 7.251 44.961 6.338 44.87 5.377 C 44.982 4.051 43.93 2.916 42.6 2.927 L 42.6 2.937 Z"/>
  <path d="M 49.87 4.087 L 49.87 9.087 L 48.29 9.087 L 48.29 1.687 L 49.92 1.687 L 53.37 6.507 L 53.37 1.687 L 54.95 1.687 L 54.95 9.087 L 53.42 9.087 L 49.87 4.087 Z"/>
  <path d="M 58.84 3.047 L 56.66 3.047 L 56.66 1.687 L 62.6 1.687 L 62.6 3.047 L 60.44 3.047 L 60.44 9.047 L 58.84 9.047 L 58.84 3.047 Z"/>
  <path d="M 68.32 7.807 L 65 7.807 L 64.53 9.087 L 62.79 9.087 L 65.67 1.687 L 67.67 1.687 L 70.54 9.127 L 68.79 9.127 L 68.32 7.807 Z M 65.42 6.437 L 67.89 6.437 L 66.66 3.017 L 65.42 6.437 Z"/>
  <path d="M 71.19 5.377 C 71.143 3.212 72.925 1.452 75.09 1.527 C 76.409 1.473 77.642 2.181 78.26 3.347 L 76.9 4.017 C 76.551 3.343 75.849 2.924 75.09 2.937 C 73.774 2.952 72.736 4.063 72.81 5.377 C 72.736 6.691 73.774 7.802 75.09 7.817 C 75.861 7.821 76.565 7.381 76.9 6.687 L 78.26 7.347 C 77.641 8.513 76.41 9.224 75.09 9.177 C 72.945 9.251 71.172 7.523 71.19 5.377 Z"/>
  <path d="M 81.62 3.047 L 79.45 3.047 L 79.45 1.687 L 85.38 1.687 L 85.38 3.047 L 83.22 3.047 L 83.22 9.047 L 81.62 9.047 L 81.62 3.047 Z"/>
  <path d="M 31.077 15.462 C 31.557 16.037 32.267 16.37 33.017 16.372 C 34.297 16.372 34.657 15.662 34.657 15.132 C 34.657 14.252 33.827 14.012 32.947 13.772 C 32.067 13.532 30.947 13.222 30.947 12.072 C 30.947 10.922 31.867 10.412 32.947 10.412 C 33.746 10.376 34.52 10.699 35.057 11.292 L 34.697 11.682 C 34.254 11.157 33.593 10.866 32.907 10.892 C 32.077 10.892 31.447 11.372 31.447 12.042 C 31.447 12.712 32.227 13.042 33.077 13.222 C 34.077 13.512 35.187 13.832 35.187 15.092 C 35.187 15.892 34.657 16.862 32.967 16.862 C 32.094 16.893 31.255 16.525 30.687 15.862 L 31.077 15.462 Z"/>
  <path d="M 36.017 14.512 C 35.903 12.838 37.645 11.668 39.151 12.407 C 39.946 12.797 40.427 13.629 40.367 14.512 C 40.48 16.187 38.739 17.356 37.232 16.617 C 36.437 16.227 35.957 15.396 36.017 14.512 Z M 39.837 14.512 C 40.035 13.242 38.784 12.233 37.585 12.697 C 36.852 12.98 36.415 13.736 36.537 14.512 C 36.338 15.782 37.589 16.791 38.788 16.328 C 39.521 16.044 39.958 15.289 39.837 14.512 Z"/>
  <path d="M 41.737 12.692 L 40.987 12.692 L 40.987 12.262 L 41.737 12.262 L 41.737 11.852 C 41.737 10.962 42.217 10.452 42.957 10.452 C 43.169 10.444 43.379 10.492 43.567 10.592 L 43.417 10.972 C 43.292 10.902 43.15 10.868 43.007 10.872 C 42.497 10.872 42.217 11.232 42.217 11.872 L 42.217 12.282 L 43.137 12.282 L 43.137 12.712 L 42.237 12.712 L 42.237 16.792 L 41.737 16.792 L 41.737 12.692 Z"/>
  <path d="M 44.597 15.912 L 44.597 12.692 L 43.847 12.692 L 43.847 12.262 L 44.597 12.262 L 44.597 11.032 L 45.097 11.032 L 45.097 12.262 L 46.017 12.262 L 46.017 12.692 L 45.097 12.692 L 45.097 15.832 C 45.097 16.192 45.247 16.452 45.567 16.452 C 45.756 16.45 45.937 16.37 46.067 16.232 L 46.257 16.602 C 46.052 16.801 45.772 16.903 45.487 16.882 C 44.887 16.892 44.597 16.522 44.597 15.912 Z"/>
  <path d="M 49.947 12.912 L 48.677 16.772 L 48.237 16.772 L 46.737 12.262 L 47.237 12.262 L 48.437 16.092 L 49.707 12.262 L 50.127 12.262 L 51.397 16.092 L 52.597 12.262 L 53.117 12.262 L 51.647 16.772 L 51.237 16.772 L 49.947 12.912 Z"/>
  <path d="M 56.927 16.242 C 56.533 16.667 55.975 16.9 55.397 16.882 C 54.539 16.922 53.821 16.24 53.817 15.382 C 53.809 14.519 54.535 13.83 55.397 13.882 C 55.975 13.864 56.533 14.098 56.927 14.522 L 56.927 13.602 C 56.891 12.98 56.334 12.52 55.717 12.602 C 55.17 12.591 54.648 12.835 54.307 13.262 L 54.037 12.922 C 54.471 12.418 55.111 12.138 55.777 12.162 C 56.697 12.162 57.417 12.602 57.417 13.612 L 57.417 16.792 L 56.927 16.792 L 56.927 16.242 Z M 56.927 14.892 C 56.596 14.482 56.093 14.249 55.567 14.262 C 54.708 14.181 54.084 15.059 54.442 15.843 C 54.641 16.277 55.092 16.537 55.567 16.492 C 56.092 16.508 56.594 16.279 56.927 15.872 L 56.927 14.892 Z"/>
  <path d="M 58.937 12.262 L 59.427 12.262 L 59.427 13.042 C 59.766 12.527 60.33 12.204 60.947 12.172 L 60.947 12.702 C 60.867 12.693 60.786 12.693 60.707 12.702 C 60.18 12.757 59.707 13.053 59.427 13.502 L 59.427 16.792 L 58.937 16.792 L 58.937 12.262 Z"/>
  <path d="M 63.627 12.152 C 64.904 12.163 65.893 13.273 65.757 14.542 L 65.757 14.672 L 61.977 14.672 C 61.96 15.66 62.759 16.468 63.747 16.462 C 64.308 16.474 64.849 16.249 65.237 15.842 L 65.487 16.162 C 65.028 16.648 64.384 16.914 63.717 16.892 C 62.416 16.912 61.375 15.82 61.457 14.522 C 61.383 13.262 62.365 12.19 63.627 12.152 Z M 61.987 14.292 L 65.237 14.292 C 65.27 13.36 64.53 12.583 63.597 12.572 C 62.681 12.615 61.965 13.376 61.977 14.292 L 61.987 14.292 Z"/>
  <path d="M6.79,17.36H2.48V7.44H0V24.8H17.36V22.32H7.44V17.88a7.17,7.17,0,0,1-.65-.51Z" style="fill:#27afd4"/>
  <path d="M14.94,5h4.9V0H2.48V17.36H6.79a7.34,7.34,0,0,1-2.45-5.58,7.33,7.33,0,0,1,7.54-7.44A7.31,7.31,0,0,1,14.94,5h0Z" style="fill:#003254"/>
  <path d="M14.94,5A6.83,6.83,0,0,1,18,7.88L14.37,9.69a2.85,2.85,0,0,0-2.49-1.46,3.3,3.3,0,0,0-3.26,3.55,3.3,3.3,0,0,0,3.26,3.55,2.79,2.79,0,0,0,2.49-1.46L18,15.67a6.78,6.78,0,0,1-6.15,3.55,7.72,7.72,0,0,1-4.44-1.35v4.45H24.8V5Z" style="fill:#0080c5"/>
  <path d="M18,7.88a6.72,6.72,0,0,0-6.16-3.54,7.33,7.33,0,0,0-7.54,7.44,7.33,7.33,0,0,0,7.54,7.44A6.78,6.78,0,0,0,18,15.67l-3.66-1.8a2.79,2.79,0,0,1-2.49,1.46,3.3,3.3,0,0,1-3.26-3.55,3.3,3.3,0,0,1,3.26-3.55,2.85,2.85,0,0,1,2.49,1.46Z" style="fill:#fff"/>
  <text style="fill: rgb(0, 128, 197); font-family: Arial, sans-serif; font-size: 1.3px; white-space: pre;" transform="matrix(5.048901, 0, 0, 5.014899, -244.754883, -55.191631)" x="48.606" y="15.539" dx="5.898" dy="0.069" bx:origin="0.5 1.920125">Bewerbung</text>
  <rect x="1.988" y="0.473" width="17.369" height="17.322" style="fill: rgb(0, 50, 84); stroke: rgb(0, 50, 84);"/>
  <rect x="7.241" y="4.969" width="17.559" height="17.275" style="paint-order: stroke; stroke: rgb(0, 128, 197); fill: rgb(0, 128, 197);"/>
</svg>